<?xml version="1.0" encoding="utf-8"?>
<!-- Generator: Adobe Illustrator 26.0.3, SVG Export Plug-In . SVG Version: 6.00 Build 0)  -->
<svg version="1.1" id="Layer_1" xmlns="http://www.w3.org/2000/svg" xmlns:xlink="http://www.w3.org/1999/xlink" x="0px" y="0px"
	 viewBox="0 0 200 200" style="enable-background:new 0 0 200 200;" xml:space="preserve">
<style type="text/css">
	.st0{fill:none;stroke:#FFFFFF;stroke-width:6;stroke-linecap:round;stroke-miterlimit:10;}
	.st1{fill:none;stroke:#FFFFFF;stroke-width:6;stroke-miterlimit:10;}
	.st2{fill:none;stroke:#FFFFFF;stroke-width:6;stroke-linecap:round;stroke-linejoin:round;stroke-miterlimit:10;}
</style>
<path class="st0" d="M61.2,79.1v47h69.3c0,3.8,3.5,6.8,7.4,6c2.3-0.5,4.1-2.3,4.6-4.6c0.8-3.9-2.2-7.4-6-7.4c-1.7,0-3.1,0.7-4.2,1.7
	L65.5,53.6c1.3-1.3,2.1-3.2,1.7-5.4c-0.4-2.4-2.3-4.4-4.7-4.9c-3.9-0.8-7.4,2.2-7.4,6c0,3.3,2.7,6.1,6.1,6.1c0,2.1,0,7.7,0,7.7"/>
<path class="st1" d="M137,100.7"/>
<path class="st0" d="M136.7,100.1v-52H67.4c0-3.8-3.5-6.8-7.4-6c-2.3,0.5-4.1,2.3-4.6,4.6c-0.8,3.9,2.2,7.4,6,7.4
	c1.7,0,3.1-0.7,4.2-1.7l66.9,68.1c-1.3,1.3-2.1,3.2-1.7,5.4c0.4,2.4,2.3,4.4,4.7,4.9c3.9,0.8,7.4-2.2,7.4-6c0-3.3-2.7-6.1-6.1-6.1
	c0-2.2,0-7.7,0-7.7"/>
<polygon class="st2" points="123.8,96.8 78,112.7 95.4,62.7 87.9,61.5 70.5,111.4 116.3,95.5 "/>
</svg>
