<?xml version="1.0" encoding="utf-8"?>
<!-- Generator: Adobe Illustrator 26.0.3, SVG Export Plug-In . SVG Version: 6.00 Build 0)  -->
<svg version="1.1" id="Layer_1" xmlns="http://www.w3.org/2000/svg" xmlns:xlink="http://www.w3.org/1999/xlink" x="0px" y="0px"
	 viewBox="0 0 200 200" style="enable-background:new 0 0 200 200;" xml:space="preserve">
<style type="text/css">
	.st0{fill:#5233FB;}
</style>
<rect x="60.2" y="78.5" class="st0" width="20.9" height="85.5"/>
<rect x="87.3" y="56.8" class="st0" width="20.9" height="110"/>
<rect x="115" y="28.2" class="st0" width="20.9" height="128.8"/>
<g>
	<g>
		<path class="st0" d="M119.4,15.2c-8.2,0.9-16,3.2-23.1,6.7C89.2,25.3,82.7,29.8,77,35C65.4,45.3,56.4,58.1,50.2,72
			c-3.1,6.9-5.5,14.1-7,21.3c-0.8,3.6-1.3,7.3-1.7,10.9s-0.5,7.3-0.3,10.9s0.5,7.1,1.1,10.6c0.6,3.5,1.6,6.8,2.8,10
			c2.4,6.3,5.8,12,10.4,16.4c9,8.9,22.3,12.2,35.8,9.6c6.8-1.2,13.5-3.8,19.9-7.2c6.4-3.5,12.5-7.8,18-12.9
			c11.2-10.1,20.4-22.9,26.9-37.1s10.2-30,9.4-46.5c1.4,3.9,2.4,8,3.1,12.1c0.7,4.2,1,8.4,1,12.6c0,4.3-0.3,8.5-0.8,12.8
			c-0.6,4.2-1.4,8.5-2.5,12.6c-4.5,16.7-12.9,32.4-24.8,45.6c-3,3.3-6.2,6.4-9.6,9.4c-3.4,2.9-7.1,5.6-10.9,8
			c-7.7,4.9-16.3,8.7-25.5,10.9s-19.3,2.5-29.1,0.2s-19-7.4-26.3-14.4c-7.2-7.1-12.4-15.8-15.5-24.9c-3.1-9.1-4.4-18.5-4.3-27.7
			c0.1-4.6,0.4-9.1,1.1-13.6s1.7-8.9,2.9-13.2c1.3-4.3,2.7-8.5,4.5-12.6s3.7-8,5.9-11.9c8.8-15.2,21-28.5,35.7-37.7
			C72.2,25,74.2,24,76,23c1.9-1,3.9-1.9,5.8-2.8c2-0.8,4-1.6,6-2.3l3.1-1c1-0.3,2-0.6,3.1-0.8C102.6,14.1,111.2,13.6,119.4,15.2z"/>
	</g>
</g>
</svg>
